<?xml version="1.0" standalone="no"?>
<!DOCTYPE svg PUBLIC "-//W3C//DTD SVG 20010904//EN"
 "http://www.w3.org/TR/2001/REC-SVG-20010904/DTD/svg10.dtd">
<svg version="1.0" xmlns="http://www.w3.org/2000/svg"
 width="980.000000pt" height="980.000000pt" viewBox="0 0 980.000000 980.000000"
 preserveAspectRatio="xMidYMid meet">
<metadata>
Created by potrace 1.16, written by Peter Selinger 2001-2019
</metadata>
<g transform="translate(0.000000,980.000000) scale(0.100000,-0.100000)" stroke="none">
<path d="M4560 9789 c-1035 -75 -1992 -461 -2800 -1127 -148 -122 -500 -474
-622 -622 -881 -1068 -1270 -2403 -1098 -3765 119 -934 501 -1801 1124 -2545
98 -117 370 -393 496 -504 1310 -1150 3104 -1521 4760 -984 519 168 1045 446
1467 775 324 252 638 564 879 874 735 946 1100 2126 1024 3314 -67 1049 -454
2021 -1129 2835 -124 150 -415 445 -565 573 -772 662 -1678 1052 -2696 1162
-174 19 -664 27 -840 14z m840 -433 c1019 -123 1916 -552 2638 -1260 739 -725
1190 -1648 1318 -2701 21 -178 30 -621 15 -815 -69 -904 -395 -1747 -949
-2450 -682 -865 -1678 -1461 -2746 -1645 -301 -51 -409 -60 -776 -60 -367 0
-476 9 -775 60 -1071 185 -2063 779 -2747 1645 -479 608 -801 1353 -912 2110
-35 244 -41 331 -41 660 0 378 16 561 76 865 216 1089 825 2054 1724 2730 637
479 1437 789 2230 865 61 5 128 12 150 14 104 10 668 -3 795 -18z"/>
<path d="M2062 6831 c-9 -6 430 -365 1469 -1199 1271 -1021 1484 -1189 1499
-1179 9 7 677 543 1484 1191 1022 822 1463 1182 1454 1187 -17 11 -5889 11
-5906 0z"/>
<path d="M1826 6619 c-8 -42 -6 -3637 3 -3667 6 -22 113 79 1056 989 578 557
1051 1018 1052 1023 2 11 -2070 1679 -2092 1684 -7 2 -15 -11 -19 -29z"/>
<path d="M7135 5811 c-572 -460 -1040 -842 -1040 -848 0 -13 2081 -2023 2094
-2023 5 0 11 21 15 46 8 64 7 3569 -2 3618 -4 22 -12 40 -17 42 -6 1 -478
-374 -1050 -835z"/>
<path d="M3093 3777 c-696 -670 -1058 -1025 -1052 -1032 7 -7 1011 -10 2974
-10 1963 0 2967 3 2974 10 6 7 -351 358 -1051 1032 l-1061 1022 -401 -322
-401 -322 -60 0 -60 0 -385 309 c-212 170 -392 315 -401 322 -13 12 -152 -119
-1076 -1009z"/>
</g>
</svg>
