<?xml version="1.0" standalone="no"?>
<!DOCTYPE svg PUBLIC "-//W3C//DTD SVG 20010904//EN"
 "http://www.w3.org/TR/2001/REC-SVG-20010904/DTD/svg10.dtd">
<svg version="1.0" xmlns="http://www.w3.org/2000/svg"
 width="678.000000pt" height="980.000000pt" viewBox="0 0 678.000000 980.000000"
 preserveAspectRatio="xMidYMid meet">
<metadata>
Created by potrace 1.16, written by Peter Selinger 2001-2019
</metadata>
<g transform="translate(0.000000,980.000000) scale(0.100000,-0.100000)"
fill="#000000" stroke="none">
<path d="M3115 9790 c-1057 -94 -1968 -637 -2553 -1519 -260 -391 -433 -838
-511 -1316 -60 -372 -53 -811 20 -1185 44 -229 95 -393 216 -698 429 -1086
1340 -2599 2790 -4634 168 -236 308 -428 313 -428 9 0 520 714 815 1140 965
1393 1738 2681 2129 3544 91 200 232 555 276 691 119 374 168 726 157 1129
-14 515 -120 943 -347 1401 -472 956 -1373 1640 -2410 1829 -249 45 -662 66
-895 46z m451 -2045 c228 -39 417 -137 580 -299 149 -148 251 -338 295 -548
29 -143 23 -349 -15 -487 -54 -194 -149 -354 -294 -493 -135 -130 -271 -208
-457 -265 -85 -25 -101 -27 -285 -27 -184 0 -200 2 -285 27 -192 59 -349 153
-482 290 -204 210 -303 455 -303 749 0 283 113 555 314 753 92 92 168 146 282
203 201 100 431 134 650 97z"/>
</g>
</svg>
