<?xml version="1.0" standalone="no"?>
<!DOCTYPE svg PUBLIC "-//W3C//DTD SVG 20010904//EN"
 "http://www.w3.org/TR/2001/REC-SVG-20010904/DTD/svg10.dtd">
<svg version="1.0" xmlns="http://www.w3.org/2000/svg"
 width="512.000000pt" height="512.000000pt" viewBox="0 0 512.000000 512.000000"
 preserveAspectRatio="xMidYMid meet">
<metadata>
Created by potrace 1.16, written by Peter Selinger 2001-2019
</metadata>
<g transform="translate(0.000000,512.000000) scale(0.100000,-0.100000)" stroke="none">
<path d="M2255 5108 c-105 -12 -298 -51 -409 -83 -994 -288 -1724 -1155 -1835
-2177 -14 -125 -14 -451 0 -576 128 -1181 1080 -2133 2261 -2261 125 -14 451
-14 576 0 1181 128 2133 1080 2261 2261 14 125 14 451 0 576 -128 1181 -1080
2133 -2261 2261 -115 13 -479 12 -593 -1z m626 -338 c974 -143 1746 -915 1889
-1889 27 -186 27 -456 0 -642 -143 -974 -915 -1746 -1889 -1889 -186 -27 -456
-27 -642 0 -974 143 -1746 915 -1889 1889 -27 186 -27 456 0 642 143 970 911
1742 1881 1888 177 27 469 28 650 1z"/>
<path d="M1475 3976 c-48 -21 -82 -49 -183 -148 -178 -177 -185 -194 -171
-426 44 -771 437 -1458 1078 -1884 368 -243 791 -381 1218 -395 230 -8 229 -8
396 156 141 138 172 186 186 281 21 157 -61 319 -199 394 -63 34 -469 146
-530 146 -52 0 -130 -19 -180 -44 -19 -10 -74 -56 -121 -103 l-86 -85 -78 27
c-419 140 -765 486 -910 909 l-27 79 86 86 c103 104 135 166 142 274 5 65 0
92 -54 288 -33 119 -68 233 -77 254 -31 64 -111 142 -183 177 -58 29 -78 33
-157 36 -77 2 -98 -1 -150 -22z"/>
</g>
</svg>
